<svg width="693" height="113" viewBox="0 0 693 113" fill="none" xmlns="http://www.w3.org/2000/svg">
<circle cx="49.5" cy="57.5" r="47" fill="white" stroke="#0A3DBF" stroke-width="5"/>
<path d="M16.072 57.016C16.072 50.36 17.448 44.44 20.2 39.256C23.016 34.008 26.984 29.944 32.104 27.064C37.224 24.12 43.112 22.648 49.768 22.648C58.216 22.648 65.32 24.92 71.08 29.464C76.84 33.944 80.552 40.056 82.216 47.8H61.96C60.744 45.24 59.048 43.288 56.872 41.944C54.76 40.6 52.296 39.928 49.48 39.928C45.128 39.928 41.64 41.496 39.016 44.632C36.456 47.704 35.176 51.832 35.176 57.016C35.176 62.264 36.456 66.456 39.016 69.592C41.64 72.664 45.128 74.2 49.48 74.2C52.296 74.2 54.76 73.528 56.872 72.184C59.048 70.84 60.744 68.888 61.96 66.328H82.216C80.552 74.072 76.84 80.216 71.08 84.76C65.32 89.24 58.216 91.48 49.768 91.48C43.112 91.48 37.224 90.04 32.104 87.16C26.984 84.216 23.016 80.152 20.2 74.968C17.448 69.72 16.072 63.736 16.072 57.016ZM190.564 91H171.748L146.692 53.176V91H127.876V23.32H146.692L171.748 61.624V23.32H190.564V91ZM220.098 38.392V49.432H241.698V63.736H220.098V75.928H244.578V91H201.282V23.32H244.578V38.392H220.098ZM251.572 57.016C251.572 50.36 252.948 44.44 255.7 39.256C258.516 34.008 262.484 29.944 267.604 27.064C272.724 24.12 278.612 22.648 285.268 22.648C293.716 22.648 300.82 24.92 306.58 29.464C312.34 33.944 316.052 40.056 317.716 47.8H297.46C296.244 45.24 294.548 43.288 292.372 41.944C290.26 40.6 287.796 39.928 284.98 39.928C280.628 39.928 277.14 41.496 274.516 44.632C271.956 47.704 270.676 51.832 270.676 57.016C270.676 62.264 271.956 66.456 274.516 69.592C277.14 72.664 280.628 74.2 284.98 74.2C287.796 74.2 290.26 73.528 292.372 72.184C294.548 70.84 296.244 68.888 297.46 66.328H317.716C316.052 74.072 312.34 80.216 306.58 84.76C300.82 89.24 293.716 91.48 285.268 91.48C278.612 91.48 272.724 90.04 267.604 87.16C262.484 84.216 258.516 80.152 255.7 74.968C252.948 69.72 251.572 63.736 251.572 57.016ZM377.602 23.32V38.296H359.554V91H340.738V38.296H322.882V23.32H377.602ZM421.755 38.392V49.432H443.355V63.736H421.755V75.928H446.235V91H402.939V23.32H446.235V38.392H421.755ZM506.508 23.32V38.296H488.46V91H469.644V38.296H451.788V23.32H506.508ZM532.286 38.392V49.432H553.886V63.736H532.286V75.928H556.766V91H513.47V23.32H556.766V38.392H532.286ZM637.911 45.88C637.911 49.976 636.951 53.72 635.031 57.112C633.175 60.44 630.327 63.128 626.487 65.176C622.711 67.16 618.071 68.152 612.567 68.152H603.255V91H584.439V23.32H612.567C618.007 23.32 622.615 24.28 626.391 26.2C630.231 28.12 633.111 30.776 635.031 34.168C636.951 37.56 637.911 41.464 637.911 45.88ZM610.743 53.176C616.055 53.176 618.711 50.744 618.711 45.88C618.711 40.952 616.055 38.488 610.743 38.488H603.255V53.176H610.743ZM664.286 38.392V49.432H685.886V63.736H664.286V75.928H688.766V91H645.47V23.32H688.766V38.392H664.286Z" fill="#0A3DBF"/>
<g filter="url(#filter0_d_1_12)">
<circle cx="108" cy="57" r="31" fill="white"/>
</g>
<g filter="url(#filter1_d_1_12)">
<circle cx="108" cy="57" r="17" fill="#0A3DBF"/>
</g>
<defs>
<filter id="filter0_d_1_12" x="62" y="11" width="92" height="92" filterUnits="userSpaceOnUse" color-interpolation-filters="sRGB">
<feFlood flood-opacity="0" result="BackgroundImageFix"/>
<feColorMatrix in="SourceAlpha" type="matrix" values="0 0 0 0 0 0 0 0 0 0 0 0 0 0 0 0 0 0 127 0" result="hardAlpha"/>
<feOffset/>
<feGaussianBlur stdDeviation="7.5"/>
<feComposite in2="hardAlpha" operator="out"/>
<feColorMatrix type="matrix" values="0 0 0 0 0 0 0 0 0 0 0 0 0 0 0 0 0 0 0.35 0"/>
<feBlend mode="normal" in2="BackgroundImageFix" result="effect1_dropShadow_1_12"/>
<feBlend mode="normal" in="SourceGraphic" in2="effect1_dropShadow_1_12" result="shape"/>
</filter>
<filter id="filter1_d_1_12" x="83.5" y="32.5" width="49" height="49" filterUnits="userSpaceOnUse" color-interpolation-filters="sRGB">
<feFlood flood-opacity="0" result="BackgroundImageFix"/>
<feColorMatrix in="SourceAlpha" type="matrix" values="0 0 0 0 0 0 0 0 0 0 0 0 0 0 0 0 0 0 127 0" result="hardAlpha"/>
<feMorphology radius="1" operator="dilate" in="SourceAlpha" result="effect1_dropShadow_1_12"/>
<feOffset/>
<feGaussianBlur stdDeviation="3.25"/>
<feComposite in2="hardAlpha" operator="out"/>
<feColorMatrix type="matrix" values="0 0 0 0 0 0 0 0 0 0 0 0 0 0 0 0 0 0 0.42 0"/>
<feBlend mode="normal" in2="BackgroundImageFix" result="effect1_dropShadow_1_12"/>
<feBlend mode="normal" in="SourceGraphic" in2="effect1_dropShadow_1_12" result="shape"/>
</filter>
</defs>
</svg>
